<?xml version="1.0" standalone="no"?>
<!DOCTYPE svg PUBLIC "-//W3C//DTD SVG 20010904//EN"
 "http://www.w3.org/TR/2001/REC-SVG-20010904/DTD/svg10.dtd">
<svg version="1.0" xmlns="http://www.w3.org/2000/svg"
 width="987.000000pt" height="945.000000pt" viewBox="0 0 987.000000 945.000000"
 preserveAspectRatio="xMidYMid meet">

<g transform="translate(0.000000,945.000000) scale(0.100000,-0.100000)"
fill="white" stroke="none">
<path d="M4803 9081 c-50 -23 -91 -87 -113 -179 l-16 -64 -169 -65 c-464 -176
-1086 -400 -2165 -778 -366 -128 -672 -236 -682 -240 -17 -7 -18 -3 -34 120
-8 62 -16 72 -79 101 -63 30 -152 32 -211 5 -98 -44 -138 -136 -199 -456 -19
-99 -134 -673 -255 -1275 -272 -1351 -409 -2074 -396 -2087 9 -9 1353 -511
1991 -743 783 -285 1532 -549 2103 -741 l323 -108 407 138 c1081 368 2063 721
3247 1166 597 225 745 281 753 289 11 12 -102 604 -454 2381 -167 843 -254
1257 -269 1292 -47 105 -147 173 -254 173 -96 0 -149 -58 -174 -189 -6 -33
-15 -61 -18 -61 -8 0 -866 299 -1444 503 -523 185 -935 333 -1294 466 l-285
106 -13 59 c-17 77 -59 152 -97 175 -48 30 -152 36 -203 12z m-121 -877 c-1
-159 -5 -355 -9 -437 -5 -139 -7 -148 -27 -152 -12 -3 -205 -41 -431 -84 -225
-44 -709 -138 -1075 -210 -750 -146 -1611 -311 -1626 -311 -12 0 -2 87 44 365
l27 169 250 79 c138 43 500 155 805 248 1619 498 1852 570 1935 597 50 17 94
29 99 28 6 -1 9 -116 8 -292z m718 206 c238 -76 538 -168 1685 -520 660 -202
1099 -341 1109 -350 4 -5 19 -75 32 -157 12 -81 32 -193 42 -248 11 -55 18
-102 16 -104 -17 -18 -832 132 -2309 423 -346 68 -676 132 -732 142 -56 9
-107 20 -113 24 -7 4 -13 150 -17 445 -6 428 -6 437 13 431 10 -3 134 -42 274
-86z m-746 -1558 c0 -256 -4 -436 -10 -441 -5 -5 -718 -38 -1584 -75 -866 -36
-1600 -67 -1630 -69 l-55 -2 3 35 c4 46 81 503 85 507 4 3 446 69 1717 258
393 58 879 132 1080 164 201 32 372 58 380 57 13 -1 15 -56 14 -434z m795 388
c145 -22 458 -70 695 -105 1336 -201 2121 -320 2162 -330 18 -4 22 -19 38
-122 17 -117 62 -361 73 -397 5 -18 -1 -18 -133 -12 -77 3 -368 15 -649 26
-427 17 -1694 70 -2330 98 l-170 7 -5 435 c-3 239 -4 439 -2 443 2 5 16 6 30
3 15 -3 146 -24 291 -46z m-807 -1604 c-1 -242 -4 -442 -6 -444 -5 -5 -706 61
-2284 213 -596 58 -1088 105 -1093 105 -5 0 -7 19 -4 43 19 169 29 239 52 365
l27 142 405 1 c223 1 658 5 966 9 308 3 871 6 1250 6 l690 -1 -3 -439z m3111
428 c389 -4 707 -8 707 -10 0 -2 18 -108 39 -236 51 -299 51 -302 26 -305 -11
-2 -207 -21 -435 -43 -228 -21 -667 -64 -975 -94 -530 -52 -1221 -119 -1728
-167 -126 -11 -230 -19 -233 -17 -8 9 -8 842 0 867 l8 24 942 -7 c517 -3 1259
-9 1649 -12z m-6243 -770 c63 -14 117 -27 120 -29 3 -2 2 -90 -3 -197 -4 -106
-6 -247 -5 -313 l3 -120 38 135 c20 74 63 215 94 313 52 161 59 177 79 177 25
0 365 -47 402 -55 l22 -5 1 -378 1 -377 34 160 c41 193 126 568 130 576 3 6
340 -44 349 -52 3 -4 -12 -92 -35 -195 -68 -319 -272 -1188 -281 -1198 -9 -10
-196 46 -374 112 l-130 49 -3 409 -4 409 -39 -160 c-39 -160 -150 -577 -154
-583 -1 -2 -94 30 -206 71 -112 41 -221 80 -241 86 l-38 13 0 271 c0 150 3
418 7 596 l6 323 56 -6 c31 -4 108 -18 171 -32z m7060 -110 c16 -76 27 -140
25 -143 -2 -2 -86 -19 -187 -37 -101 -19 -194 -36 -207 -39 -23 -6 -23 -9 -17
-67 3 -34 8 -63 10 -65 2 -2 87 15 190 38 103 23 189 39 192 36 7 -7 63 -227
64 -247 0 -18 -111 -61 -285 -111 -60 -18 -112 -33 -114 -35 -2 -2 2 -26 9
-53 l12 -51 64 0 c48 0 98 11 204 45 77 25 147 45 154 45 10 0 18 -36 31 -134
10 -74 15 -141 13 -148 -6 -15 0 -12 -408 -160 -223 -81 -323 -113 -370 -117
-58 -5 -76 -13 -154 -64 -49 -31 -108 -62 -130 -68 -68 -18 -125 -39 -257 -95
-182 -78 -334 -112 -377 -86 -11 8 -77 644 -113 1092 -6 80 -12 146 -13 147
-1 2 -15 -38 -31 -87 -18 -55 -35 -92 -44 -94 -9 -3 -54 -12 -100 -22 l-84
-18 7 -105 c8 -137 74 -976 80 -1018 3 -18 -1 -36 -7 -41 -16 -12 -427 -165
-432 -160 -12 12 -47 566 -63 1010 -5 114 -11 211 -15 214 -4 4 -58 0 -119 -9
-62 -9 -116 -13 -119 -9 -6 6 -29 319 -29 396 l0 33 106 17 c58 9 260 37 447
61 370 49 749 102 783 110 21 5 22 0 29 -68 3 -39 22 -207 41 -372 18 -165 40
-362 48 -439 8 -76 18 -141 21 -144 3 -4 61 13 128 36 168 58 219 55 281 -19
l27 -32 -6 54 c-4 30 -29 185 -55 344 -56 333 -70 448 -70 574 0 130 3 135 97
154 114 23 130 25 343 42 107 9 233 24 280 33 47 10 86 17 88 16 2 -1 16 -64
32 -140z m-5380 -105 c173 -22 337 -43 364 -46 l48 -6 100 -134 100 -133 -12
-215 -13 -215 -83 -71 c-46 -39 -84 -73 -84 -76 0 -3 34 -51 74 -107 l75 -102
-16 -355 c-9 -194 -18 -356 -20 -359 -7 -7 -276 86 -359 125 -87 40 -89 45
-74 200 15 160 24 395 16 446 -6 43 -9 45 -57 62 -28 10 -52 17 -53 15 -2 -2
-16 -142 -31 -313 -15 -170 -30 -313 -34 -317 -7 -9 -271 81 -338 115 -26 14
-59 33 -71 44 l-23 18 73 733 c61 616 75 732 88 732 9 0 157 -18 330 -41z
m1056 -139 c174 -22 356 -43 404 -47 49 -3 93 -9 99 -13 8 -4 14 -90 18 -248
l6 -242 -34 0 c-44 0 -267 36 -343 56 -32 8 -60 13 -63 11 -9 -9 -16 -217 -7
-217 25 0 307 -71 358 -90 l58 -22 -6 -117 c-3 -64 -9 -167 -12 -228 -6 -98
-9 -113 -24 -113 -9 0 -103 22 -209 48 l-192 49 3 -116 3 -115 229 -74 229
-74 -7 -60 c-3 -34 -6 -149 -6 -256 0 -181 -1 -194 -17 -187 -10 4 -137 49
-283 100 -318 111 -396 141 -519 203 l-94 47 7 210 c3 115 17 424 31 685 13
261 27 559 31 663 4 103 11 187 16 187 5 0 151 -18 324 -40z m1505 -94 c138
-126 136 -122 149 -276 10 -112 9 -135 -2 -147 -8 -7 -76 -36 -151 -62 -184
-65 -255 -115 -210 -149 39 -30 122 -66 247 -109 72 -24 134 -47 138 -51 4 -4
11 -141 17 -306 l10 -298 -24 -47 c-38 -76 -140 -223 -182 -262 -27 -26 -75
-51 -163 -86 -141 -57 -442 -168 -452 -168 -3 0 -61 42 -127 93 l-121 94 0
214 c0 127 4 214 9 214 6 0 105 45 221 100 117 55 216 100 220 100 4 0 9 -63
12 -139 2 -77 6 -142 9 -146 4 -3 34 2 68 11 l62 17 -3 111 -3 110 -175 62
c-96 34 -229 83 -295 110 l-120 49 -3 323 -2 323 79 117 c116 171 135 186 251
207 52 9 176 27 275 40 99 12 181 23 182 24 1 1 39 -32 84 -73z"/>
<path d="M1195 3488 c-98 -343 -487 -1728 -488 -1741 -2 -16 54 -35 418 -138
483 -137 529 -147 700 -152 241 -9 455 242 464 543 4 143 -48 262 -148 335
-22 17 -41 33 -41 36 0 6 10 11 93 41 102 38 203 162 241 296 19 68 24 170 12
242 -12 69 -63 166 -115 218 -43 42 -75 62 -176 108 -32 15 -913 264 -933 264
-6 0 -18 -24 -27 -52z m510 -484 c50 -14 104 -32 122 -40 17 -7 36 -14 42 -14
6 0 11 -4 11 -9 0 -5 8 -12 18 -15 22 -7 52 -67 52 -104 0 -40 -20 -103 -42
-135 -27 -38 -75 -60 -129 -59 -36 1 -261 56 -277 68 -9 6 92 334 102 334 7 0
52 -11 101 -26z m-254 -606 c1 -24 1 -48 0 -53 0 -6 38 -21 86 -34 48 -14 99
-30 113 -36 14 -7 46 -23 72 -35 28 -13 55 -35 66 -54 24 -42 28 -126 7 -169
-19 -40 -84 -109 -96 -102 -4 3 -10 2 -13 -3 -10 -17 -103 -2 -240 37 -76 22
-140 42 -142 44 -4 3 83 304 113 394 10 29 21 53 26 53 4 0 8 -19 8 -42z"/>
<path d="M8035 3285 c-154 -62 -288 -119 -299 -127 -12 -9 -24 -44 -37 -108
-24 -120 -25 -127 -49 -235 -30 -140 -32 -148 -37 -188 -3 -20 -8 -39 -12 -42
-4 -2 -47 97 -96 221 -48 123 -93 224 -99 224 -7 0 -110 -40 -231 -89 -154
-61 -219 -92 -217 -102 6 -26 745 -1874 753 -1883 7 -8 433 155 452 173 4 5
-74 212 -174 462 -99 250 -184 460 -186 467 -3 7 9 -1 26 -18 17 -17 31 -33
31 -34 0 -1 46 -50 103 -108 87 -90 235 -245 421 -443 26 -27 74 -78 107 -112
l59 -63 278 111 c152 61 279 113 282 115 4 5 -88 95 -183 179 -25 22 -88 81
-140 130 -102 97 -255 239 -315 293 -43 40 -241 223 -325 302 -67 63 -66 43
-17 225 12 44 23 88 25 98 2 9 6 21 9 25 3 5 7 20 10 34 2 15 18 77 35 140 18
62 36 131 42 153 6 22 15 51 20 65 4 14 11 43 15 65 4 22 10 47 15 56 8 15 15
45 26 102 3 15 1 27 -3 26 -5 0 -135 -52 -289 -114z"/>
<path d="M2796 2993 c-50 -174 -495 -1763 -498 -1777 -3 -17 26 -27 237 -87
132 -38 243 -69 246 -69 4 0 48 147 99 328 51 180 94 329 96 331 4 5 96 -192
103 -221 1 -4 9 -25 18 -45 30 -72 36 -88 39 -98 19 -61 202 -604 217 -645
l21 -56 290 -81 c160 -45 292 -81 293 -79 2 2 -23 50 -55 107 -56 98 -90 166
-117 234 -7 17 -24 58 -38 93 -29 71 -62 192 -73 267 -9 63 -58 207 -90 262
l-25 42 24 6 c13 4 32 8 43 10 10 2 20 4 22 5 1 2 5 3 10 4 61 14 203 127 244
194 12 20 25 39 28 42 7 6 60 118 60 126 0 3 6 20 14 37 54 121 77 318 51 442
-13 61 -59 160 -89 190 -6 7 -23 25 -37 41 -14 16 -36 36 -49 44 -12 8 -28 20
-34 26 -18 17 -128 74 -143 74 -7 0 -13 4 -13 9 0 5 -15 13 -32 16 -18 4 -38
11 -43 16 -11 8 -786 229 -804 229 -5 0 -12 -8 -15 -17z m478 -514 c39 -11 85
-26 101 -34 38 -18 101 -82 114 -118 26 -69 5 -207 -41 -272 -79 -111 -174
-159 -308 -157 -77 1 -113 11 -107 30 51 191 162 572 165 572 3 0 37 -9 76
-21z"/>
<path d="M6193 2687 c-177 -45 -324 -85 -327 -88 -3 -3 -8 -113 -11 -245 -11
-551 -16 -759 -20 -944 -2 -107 -7 -343 -10 -525 -4 -181 -8 -345 -9 -363 -1
-18 1 -35 5 -38 4 -2 120 24 258 58 179 45 251 67 254 78 2 8 3 135 2 283 -1
147 -1 267 0 267 1 0 19 -27 39 -60 21 -33 43 -60 49 -60 7 0 91 20 187 45 96
24 175 43 175 42 1 -2 23 -50 75 -162 42 -90 65 -142 82 -182 7 -18 15 -33 18
-33 16 1 472 119 477 123 3 3 -11 39 -31 79 -20 40 -36 78 -36 85 0 6 -3 13
-7 15 -9 4 -123 235 -123 249 0 5 -4 9 -10 9 -5 0 -10 5 -10 12 0 7 -31 76
-69 153 -105 212 -324 661 -362 740 -18 39 -37 72 -41 73 -4 2 -8 9 -8 15 0 6
-26 65 -59 131 -32 67 -76 157 -97 201 -21 44 -42 82 -46 83 -4 2 -8 12 -8 23
0 10 -3 19 -7 18 -5 0 -153 -38 -330 -82z m199 -692 c15 -33 28 -65 28 -72 0
-7 5 -13 10 -13 6 0 10 -7 10 -15 0 -8 9 -30 20 -50 11 -20 20 -42 20 -50 0
-8 5 -15 10 -15 6 0 10 -9 10 -19 0 -11 5 -23 10 -26 6 -3 10 -15 10 -26 0
-10 5 -19 10 -19 6 0 10 -7 10 -15 0 -8 9 -31 20 -51 12 -20 20 -38 18 -39 -8
-8 -238 -62 -243 -57 -3 3 -5 138 -5 301 0 282 1 294 17 261 9 -19 29 -62 45
-95z"/>
<path d="M4470 2120 l0 -410 -60 0 c-59 0 -60 0 -78 -37 -10 -21 -32 -63 -49
-93 -51 -91 -94 -171 -130 -240 l-34 -65 176 -3 175 -2 0 -395 0 -395 490 0
490 0 0 205 0 205 -230 0 -230 0 0 190 0 190 188 2 187 3 0 215 0 215 -192 3
-193 2 0 200 0 200 235 0 235 0 0 210 0 210 -490 0 -490 0 0 -410z"/>
</g>
</svg>
